<?xml version="1.0" encoding="utf-8"?>
<!-- Generator: Adobe Illustrator 15.0.0, SVG Export Plug-In . SVG Version: 6.00 Build 0)  -->
<!DOCTYPE svg PUBLIC "-//W3C//DTD SVG 1.1//EN" "http://www.w3.org/Graphics/SVG/1.1/DTD/svg11.dtd">
<svg version="1.1" id="Capa_1" xmlns="http://www.w3.org/2000/svg" xmlns:xlink="http://www.w3.org/1999/xlink" x="0px" y="0px"
	 width="841.889px" height="595.281px" viewBox="0 0 841.889 595.281" enable-background="new 0 0 841.889 595.281"
	 xml:space="preserve">
<g>
	<path d="M814.794,201.194c-1.613-1.613-27.097-21.936-28.063-17.096c-11.612,46.447-24.191,96.123-57.738,132.251
		c-33.547,35.805-82.254,49.029-127.412,26.127c-19.354-9.677-32.257-26.45-44.837-43.868c-0.968-1.291-2.258-2.581-3.226-3.871
		c0.323-3.871,0.323-8.064,0.646-11.935c3.548-3.55,9.03-6.774,11.611-9.032c8.387-7.097,16.128-15.16,23.226-23.547
		c29.997-34.837,48.384-77.737,54.513-123.22c1.29-9.677-19.354-25.159-25.805-30.644c-2.903-2.258-20.968-17.419-22.258-9.354
		c-5.16,37.096-19.354,72.576-41.288,102.897c-1.29-39.675-4.516-79.028-9.354-118.381c-2.258-17.096-66.448-13.226-64.513,1.291
		c10.967,87.735,12.901,176.119,5.807,263.856c-3.549,1.611-6.129,3.548-6.774,5.806c-3.226,1.291-5.806,3.226-7.419,5.484
		c-2.258,3.226-10.321,12.257-12.901,12.257c-9.999-0.969-19.999-22.257-23.547-29.998c-14.517-32.901-13.227-69.997-21.936-104.512
		c-0.646-2.258-1.936-4.192-3.871-5.807c-3.87-9.031-9.354-17.74-16.449-25.159c-15.483-16.129-37.096-24.838-59.997-22.257
		c-25.482,2.902-34.191,20.966-42.578,42.578c-15.806,40.643-19.354,84.512-11.936,127.412c0.646,3.226,1.29,6.129,1.937,9.032
		c-17.096,7.74-34.192,9.03-46.449-3.871c-26.771-28.708-26.771-74.189-45.804-107.413c-21.936-38.708-75.803-55.159-111.607-30.321
		c0-5.483,0-11.29,0-16.773c0-22.579-63.867-28.708-63.867-8.387c0,61.287,5.161,121.931,15.16,182.249
		c0.646,3.87,0.969,7.418,1.937,11.289c3.871,19.677,67.093,24.516,62.898,0c-0.645-2.902-0.967-6.129-1.611-9.031
		c-5.483-39.029,2.258-80.317,22.257-114.511c3.548-5.806,7.741-10.646,11.935-15.806c0.323,0.322,0.646,0.646,0.968,1.291
		c9.032,14.838,13.87,32.577,19.031,49.028c10.646,33.548,23.226,66.448,55.805,84.835c31.61,17.74,69.351,19.354,103.864,10
		c4.193,2.579,9.031,4.516,14.838,6.128c22.579,6.129,48.707,3.871,64.514-15.16c3.548-4.517,6.772-9.354,9.03-14.838
		c2.903,3.226,6.129,6.129,9.677,9.031c27.74,22.579,80.965,32.578,113.544,11.612c15.481-0.323,30.966-4.517,31.934-12.903
		c1.936-16.771,3.226-33.868,4.193-50.642c56.447,60.964,144.508,117.735,217.085,49.352c38.385-36.448,52.255-89.35,64.513-139.023
		C836.082,219.258,820.6,206.677,814.794,201.194z M336.111,315.383c0.322-9.032,2.259-32.902,2.259-40.321
		c-0.322-11.936,3.226-28.708,11.611-36.771c7.098,13.226,7.419,22.901,6.774,36.127
		C355.787,286.35,337.724,312.802,336.111,315.383z"/>
	<g opacity="0.4">
		<path fill="#FFFFFF" stroke="#000000" stroke-miterlimit="10" d="M17.096,502.469c0-0.969,0-1.29,0.322-1.936
			c0.322-0.322,0.322-1.291,0.968-1.936c0.322-0.323,0.968-0.968,1.936-0.968c0.322-0.323,1.29-0.323,2.259-0.323
			c0.968,0,1.29,0,1.936,0.323c0.322,0.321,1.29,0.321,1.937,0.968c0.321,0.322,0.968,0.968,0.968,1.936
			c0.322,0.322,0.322,1.29,0.322,1.936c0,0.968,0,1.291-0.322,2.259c-0.323,0.322-0.323,1.29-0.968,1.935
			c-0.323,0.323-0.969,0.969-1.937,0.969c-0.322,0.322-1.29,0.322-1.936,0.322c-1.29,0-2.58-0.322-3.548-1.291
			C18.064,505.694,17.096,503.76,17.096,502.469z"/>
		<path fill="#FFFFFF" stroke="#000000" stroke-miterlimit="10" d="M91.285,437.634c-0.322,0.321-0.969,0.968-1.29,0.968
			c-0.323,0-0.969-0.322-1.937-0.968s-1.936-1.29-3.226-2.259c-1.29-0.968-3.227-1.936-4.839-2.258
			c-1.612-0.321-4.517-0.968-7.097-0.968c-2.581,0-5.483,0.322-7.741,1.29c-2.259,0.968-4.193,1.937-5.483,3.227
			s-2.58,3.226-3.227,4.839c-0.968,1.936-1.289,3.548-1.289,5.806c0,2.581,0.321,4.839,1.936,6.774
			c1.29,1.936,2.58,3.226,4.516,4.516c1.937,1.29,4.193,2.258,6.129,3.226c2.259,0.969,4.839,1.937,7.097,2.581
			c2.259,0.968,4.839,1.936,7.097,2.58c2.258,0.968,4.516,2.258,6.129,3.548c1.612,1.291,3.227,3.227,4.517,5.483
			c1.29,2.259,1.936,4.839,1.936,8.063c0,3.226-0.322,6.13-1.936,9.354c-1.29,2.58-2.58,5.483-4.839,7.741s-4.839,4.192-8.063,4.839
			c-3.226,1.29-6.773,1.936-10.646,1.936c-5.482,0-10-0.968-13.548-2.581c-3.548-1.936-7.097-4.516-9.999-7.74l1.29-2.259
			c0.322-0.322,0.969-0.968,1.29-0.968c0.322,0,0.968,0,1.29,0.322c0.323,0.322,1.291,0.968,1.937,1.936
			c0.968,0.322,1.936,1.29,2.581,2.259c0.645,0.968,2.258,1.29,3.548,2.258c1.29,0.323,3.226,1.29,4.839,1.936
			c1.935,0.322,3.548,0.322,6.128,0.322c3.226,0,5.807-0.322,8.387-1.29c2.581-0.968,4.517-2.258,6.129-4.193
			c1.613-1.935,3.227-3.548,4.193-5.806s1.29-4.516,1.29-7.097c0-2.58-0.322-4.838-1.937-6.773
			c-1.289-1.936-2.579-3.226-4.516-4.517c-1.936-1.29-4.193-2.258-6.129-3.227c-2.258-0.968-4.838-1.935-7.096-2.258
			c-2.26-0.322-4.839-1.936-7.098-2.58c-2.258-0.968-4.516-2.258-6.129-3.549c-1.936-1.29-3.226-3.548-4.516-5.806
			c-1.29-2.259-1.937-4.839-1.937-8.388c0-2.58,0.322-5.482,1.29-7.74c0.969-2.259,2.259-4.518,4.518-6.13
			c1.935-1.936,4.516-3.548,7.096-4.516c2.581-1.291,6.129-1.936,10-1.936c4.193,0,7.741,0.321,10.646,1.936
			c3.226,1.29,6.128,3.227,9.03,5.806L91.285,437.634z"/>
		<path fill="#FFFFFF" stroke="#000000" stroke-miterlimit="10" d="M170.314,427.956v4.84h-27.741v73.544h-5.482v-73.544h-27.74
			v-4.84H170.314L170.314,427.956z"/>
		<path fill="#FFFFFF" stroke="#000000" stroke-miterlimit="10" d="M220.955,502.791c3.549,0,7.097-0.322,10.321-1.936
			c3.227-1.29,5.483-3.226,7.741-5.483c2.259-2.258,3.549-4.839,4.839-8.063c0.969-3.227,1.937-6.773,1.937-10.322v-48.384h5.806
			v48.384c0,4.518-0.968,8.387-2.258,12.258c-1.29,3.549-3.226,7.098-5.806,9.999c-2.581,2.581-5.808,4.839-9.354,6.774
			c-3.547,1.935-7.741,2.258-12.58,2.258c-4.516,0-8.387-0.968-12.58-2.258c-3.548-1.937-6.772-3.549-9.354-6.774
			c-2.58-3.226-4.517-6.128-5.807-9.999c-1.29-3.548-2.258-7.74-2.258-12.258v-48.384h5.807v48.384
			c0,3.549,0.321,7.098,1.936,10.322c0.968,3.226,2.58,5.807,4.839,8.063c2.258,2.259,4.517,4.193,7.741,5.483
			C213.86,502.145,217.407,502.791,220.955,502.791z"/>
		<path fill="#FFFFFF" stroke="#000000" stroke-miterlimit="10" d="M348.045,467.308c0,6.129-0.968,11.612-2.58,16.772
			c-1.937,4.84-4.516,9.032-7.741,12.58c-3.225,3.548-7.097,5.807-11.612,7.741c-4.517,1.937-10,2.581-15.16,2.581h-28.708v-78.706
			h28.708c5.483,0,10.645,0.968,15.16,2.581c4.517,1.937,8.388,4.516,11.612,7.741c3.227,3.548,5.806,7.741,7.741,12.58
			C347.077,455.696,348.045,461.504,348.045,467.308z M342.24,467.308c0-5.483-0.968-10.322-2.258-14.838
			c-1.29-4.517-3.549-8.063-6.129-10.646c-2.58-2.58-6.129-5.482-9.999-6.772c-4.192-1.29-8.063-2.258-12.902-2.258H288.05v69.673
			h22.901c4.839,0,9.031-0.968,12.902-2.258c4.193-1.29,7.097-4.193,9.999-6.773c2.58-2.581,4.839-6.774,6.129-10.646
			C341.272,478.598,342.24,472.793,342.24,467.308z"/>
		<path fill="#FFFFFF" stroke="#000000" stroke-miterlimit="10" d="M382.238,506.984h-5.807v-78.706h5.807V506.984z"/>
		<path fill="#FFFFFF" stroke="#000000" stroke-miterlimit="10" d="M485.456,467.308c0,6.129-0.968,11.612-2.58,16.772
			c-1.936,4.84-4.517,9.032-7.741,12.58c-3.226,3.548-7.098,6.129-11.612,8.064c-4.516,1.935-9.999,2.58-15.16,2.58
			s-10.645-0.968-15.16-2.58c-4.517-1.937-8.387-4.517-11.611-8.064c-3.226-3.547-5.808-7.74-7.742-12.58
			c-1.937-4.838-2.58-10.321-2.58-16.772c0-5.806,0.968-11.612,2.58-16.773c1.936-4.838,4.517-9.03,7.742-12.579
			s7.096-6.129,11.611-8.063c4.517-1.937,9.999-2.581,15.16-2.581c5.483,0,10.646,0.968,15.16,2.581
			c4.516,1.936,8.387,4.516,11.612,8.063c3.226,3.549,5.807,7.741,7.741,12.579C484.49,455.696,485.456,461.504,485.456,467.308z
			 M479.651,467.308c0-5.483-0.967-10.322-2.258-14.838c-1.29-4.517-3.548-8.063-6.128-11.289c-2.581-3.227-6.129-5.484-10-7.098
			c-4.193-1.936-8.064-2.258-12.902-2.258c-4.516,0-9.032,0.969-12.901,2.258c-4.193,1.937-7.098,4.193-10,7.098
			c-2.58,3.226-4.839,6.772-6.13,11.289c-1.29,4.516-2.258,9.354-2.258,14.838s0.968,10.322,2.258,14.838
			c1.291,4.517,3.55,8.064,6.13,11.29s6.129,5.483,10,6.773c4.192,1.936,8.062,2.258,12.901,2.258c4.838,0,9.031-0.968,12.902-2.258
			c4.192-1.936,7.097-4.193,10-6.773c2.58-3.226,4.838-6.773,6.128-11.29C479.327,477.632,479.651,472.793,479.651,467.308z"/>
	</g>
</g>
</svg>
