<?xml version="1.0" encoding="utf-8"?>
<!-- Generator: Adobe Illustrator 15.0.0, SVG Export Plug-In . SVG Version: 6.00 Build 0)  -->
<!DOCTYPE svg PUBLIC "-//W3C//DTD SVG 1.1//EN" "http://www.w3.org/Graphics/SVG/1.1/DTD/svg11.dtd">
<svg version="1.1" id="Capa_1" xmlns="http://www.w3.org/2000/svg" xmlns:xlink="http://www.w3.org/1999/xlink" x="0px" y="0px"
	 width="841.889px" height="595.281px" viewBox="0 0 841.889 595.281" enable-background="new 0 0 841.889 595.281"
	 xml:space="preserve">
<g>
	<path d="M814.794,201.194c-1.613-1.613-27.096-21.935-28.063-17.096c-11.612,46.448-24.191,96.123-57.738,132.251
		c-33.547,35.805-82.254,49.029-127.412,26.127c-19.354-9.677-32.257-26.45-44.837-43.868c-0.968-1.291-2.258-2.581-3.226-3.871
		c0.323-3.871,0.323-8.064,0.646-11.935c3.548-3.549,9.031-6.774,11.612-9.032c8.387-7.096,16.128-15.16,23.225-23.547
		c29.998-34.837,48.384-77.737,54.513-123.219c1.29-9.677-19.354-25.16-25.805-30.644c-2.903-2.258-20.967-17.419-22.257-9.354
		c-5.161,37.095-19.354,72.576-41.288,102.897c-1.29-39.675-4.516-79.028-9.354-118.381c-2.258-17.096-66.448-13.225-64.513,1.291
		c10.967,87.736,12.902,176.119,5.807,263.856c-3.549,1.612-6.129,3.548-6.774,5.806c-3.226,1.291-5.806,3.226-7.419,5.484
		c-2.258,3.226-10.322,12.257-12.902,12.257c-9.999-0.968-19.999-22.257-23.547-29.998c-14.516-32.901-13.226-69.997-21.935-104.511
		c-0.646-2.258-1.936-4.193-3.871-5.807c-3.87-9.031-9.354-17.74-16.45-25.159c-15.483-16.129-37.095-24.838-59.997-22.257
		c-25.482,2.902-34.191,20.966-42.578,42.578c-15.806,40.643-19.354,84.512-11.935,127.412c0.646,3.226,1.29,6.129,1.936,9.032
		c-17.096,7.741-34.192,9.031-46.449-3.871c-26.772-28.708-26.772-74.189-45.804-107.413
		c-21.935-38.708-75.803-55.159-111.607-30.321c0-5.483,0-11.29,0-16.773c0-22.579-63.867-28.708-63.867-8.387
		c0,61.287,5.161,121.93,15.16,182.249c0.646,3.87,0.968,7.418,1.936,11.289c3.871,19.677,67.093,24.515,62.899,0
		c-0.645-2.903-0.967-6.129-1.612-9.031c-5.483-39.03,2.258-80.318,22.257-114.511c3.548-5.806,7.741-10.645,11.935-15.806
		c0.323,0.323,0.646,0.646,0.968,1.291c9.032,14.838,13.87,32.578,19.031,49.029c10.645,33.547,23.225,66.448,55.804,84.834
		c31.611,17.741,69.351,19.354,103.865,10c4.193,2.58,9.031,4.516,14.838,6.128c22.579,6.129,48.707,3.871,64.513-15.16
		c3.548-4.516,6.773-9.354,9.031-14.838c2.903,3.226,6.129,6.129,9.677,9.032c27.74,22.579,80.964,32.578,113.543,11.612
		c15.482-0.323,30.966-4.517,31.934-12.903c1.936-16.772,3.226-33.869,4.193-50.642c56.448,60.964,144.508,117.735,217.085,49.352
		c38.385-36.449,52.255-89.35,64.513-139.024C836.083,219.258,820.6,206.677,814.794,201.194z M336.111,315.382
		c0.322-9.032,2.258-32.902,2.258-40.321c-0.322-11.935,3.226-28.708,11.612-36.771c7.097,13.225,7.419,22.901,6.774,36.127
		C355.787,286.35,337.724,312.801,336.111,315.382z"/>
	<g>
		<path fill="#C2C3C9" d="M17.096,502.468c0-0.968,0-1.29,0.322-1.935c0.322-0.323,0.322-1.291,0.968-1.936
			c0.322-0.323,0.968-0.968,1.936-0.968c0.322-0.323,1.29-0.323,2.258-0.323s1.29,0,1.936,0.323c0.322,0.322,1.29,0.322,1.936,0.968
			c0.322,0.322,0.968,0.968,0.968,1.936c0.322,0.322,0.322,1.29,0.322,1.935c0,0.968,0,1.291-0.322,2.259
			c-0.323,0.322-0.323,1.29-0.968,1.935c-0.323,0.323-0.968,0.968-1.936,0.968c-0.322,0.323-1.29,0.323-1.936,0.323
			c-1.29,0-2.58-0.323-3.548-1.291S17.096,503.759,17.096,502.468z"/>
		<path fill="#C2C3C9" d="M91.285,437.633c-0.322,0.322-0.968,0.968-1.29,0.968c-0.323,0-0.968-0.322-1.936-0.968
			c-0.968-0.645-1.936-1.29-3.226-2.258s-3.226-1.936-4.839-2.258c-1.612-0.322-4.516-0.968-7.096-0.968
			c-2.581,0-5.484,0.322-7.742,1.29s-4.193,1.936-5.483,3.226c-1.29,1.291-2.58,3.226-3.226,4.839
			c-0.968,1.936-1.29,3.548-1.29,5.806c0,2.581,0.322,4.839,1.936,6.774c1.29,1.936,2.58,3.226,4.516,4.516s4.193,2.258,6.129,3.226
			c2.258,0.968,4.838,1.936,7.096,2.581c2.259,0.967,4.839,1.935,7.097,2.58c2.258,0.968,4.516,2.258,6.129,3.548
			c1.612,1.291,3.226,3.226,4.516,5.483c1.29,2.259,1.936,4.839,1.936,8.064s-0.322,6.129-1.936,9.354
			c-1.29,2.58-2.58,5.483-4.838,7.741c-2.259,2.258-4.839,4.193-8.064,4.839c-3.226,1.29-6.773,1.936-10.645,1.936
			c-5.483,0-10-0.968-13.548-2.581c-3.548-1.936-7.097-4.516-9.999-7.741l1.29-2.258c0.322-0.323,0.968-0.968,1.29-0.968
			s0.968,0,1.29,0.322c0.323,0.322,1.291,0.968,1.936,1.936c0.968,0.322,1.936,1.29,2.581,2.258c0.645,0.968,2.258,1.29,3.548,2.258
			c1.29,0.323,3.226,1.29,4.839,1.936c1.935,0.322,3.548,0.322,6.128,0.322c3.226,0,5.807-0.322,8.387-1.29
			c2.581-0.968,4.516-2.258,6.129-4.193s3.226-3.548,4.193-5.806s1.29-4.516,1.29-7.097c0-2.58-0.322-4.838-1.936-6.773
			c-1.29-1.936-2.58-3.226-4.516-4.517c-1.936-1.29-4.193-2.258-6.129-3.226c-2.258-0.968-4.838-1.935-7.096-2.258
			c-2.259-0.322-4.839-1.936-7.097-2.58c-2.258-0.968-4.516-2.258-6.129-3.549c-1.936-1.29-3.226-3.548-4.516-5.806
			s-1.936-4.839-1.936-8.387c0-2.58,0.322-5.483,1.29-7.741s2.258-4.517,4.517-6.129c1.935-1.936,4.516-3.548,7.096-4.516
			c2.581-1.291,6.129-1.936,10-1.936c4.193,0,7.741,0.322,10.645,1.936c3.226,1.29,6.128,3.226,9.031,5.806L91.285,437.633z"/>
		<path fill="#C2C3C9" d="M170.314,427.956v4.839h-27.741v73.544h-5.483v-73.544h-27.74v-4.839H170.314L170.314,427.956z"/>
		<path fill="#C2C3C9" d="M220.955,502.791c3.549,0,7.097-0.323,10.322-1.936c3.226-1.29,5.483-3.226,7.741-5.483
			c2.259-2.258,3.549-4.839,4.839-8.064c0.968-3.226,1.936-6.773,1.936-10.322v-48.384h5.806v48.384
			c0,4.517-0.968,8.387-2.258,12.258c-1.29,3.548-3.226,7.097-5.806,9.999c-2.581,2.581-5.807,4.839-9.354,6.774
			s-7.741,2.258-12.58,2.258c-4.516,0-8.387-0.968-12.58-2.258c-3.548-1.936-6.773-3.549-9.354-6.774
			c-2.58-3.226-4.516-6.128-5.806-9.999c-1.29-3.548-2.258-7.741-2.258-12.258v-48.384h5.806v48.384
			c0,3.549,0.322,7.097,1.936,10.322c0.968,3.226,2.58,5.807,4.839,8.064c2.258,2.258,4.516,4.193,7.741,5.483
			C213.86,502.145,217.407,502.791,220.955,502.791z"/>
		<path fill="#C2C3C9" d="M348.045,467.308c0,6.129-0.968,11.612-2.58,16.773c-1.936,4.839-4.516,9.032-7.741,12.58
			s-7.097,5.806-11.612,7.741c-4.517,1.936-10,2.581-15.161,2.581h-28.708v-78.706h28.708c5.484,0,10.645,0.968,15.161,2.581
			c4.516,1.936,8.387,4.516,11.612,7.741c3.226,3.548,5.806,7.741,7.741,12.58C347.077,455.696,348.045,461.503,348.045,467.308z
			 M342.24,467.308c0-5.483-0.968-10.322-2.258-14.838s-3.549-8.063-6.129-10.645c-2.58-2.58-6.129-5.483-9.999-6.773
			c-4.193-1.29-8.064-2.258-12.903-2.258h-22.901v69.673h22.901c4.839,0,9.032-0.968,12.903-2.258
			c4.193-1.29,7.096-4.193,9.999-6.773c2.58-2.581,4.839-6.774,6.129-10.645C341.272,478.598,342.24,472.792,342.24,467.308z"/>
		<path fill="#C2C3C9" d="M382.238,506.984h-5.807v-78.706h5.807V506.984z"/>
		<path fill="#C2C3C9" d="M485.457,467.308c0,6.129-0.968,11.612-2.581,16.773c-1.935,4.839-4.516,9.032-7.741,12.58
			s-7.097,6.129-11.612,8.064c-4.516,1.935-9.999,2.58-15.16,2.58s-10.645-0.968-15.16-2.58c-4.517-1.936-8.387-4.517-11.612-8.064
			s-5.807-7.741-7.742-12.58c-1.936-4.838-2.58-10.322-2.58-16.773c0-5.806,0.968-11.612,2.58-16.773
			c1.936-4.838,4.517-9.031,7.742-12.579c3.226-3.549,7.096-6.129,11.612-8.064c4.516-1.936,9.999-2.581,15.16-2.581
			c5.483,0,10.645,0.968,15.16,2.581c4.516,1.936,8.387,4.516,11.612,8.064c3.226,3.548,5.807,7.741,7.741,12.579
			C484.49,455.696,485.457,461.503,485.457,467.308z M479.651,467.308c0-5.483-0.967-10.322-2.258-14.838
			c-1.29-4.516-3.548-8.063-6.128-11.289c-2.581-3.226-6.129-5.484-10-7.097c-4.193-1.936-8.064-2.258-12.902-2.258
			c-4.516,0-9.032,0.968-12.902,2.258c-4.193,1.936-7.097,4.193-10,7.097c-2.58,3.226-4.838,6.773-6.129,11.289
			c-1.29,4.516-2.258,9.354-2.258,14.838s0.968,10.322,2.258,14.838c1.291,4.517,3.549,8.064,6.129,11.29
			c2.581,3.226,6.129,5.483,10,6.773c4.193,1.936,8.063,2.258,12.902,2.258c4.838,0,9.031-0.967,12.902-2.258
			c4.193-1.935,7.097-4.193,10-6.773c2.58-3.226,4.838-6.773,6.128-11.29C479.328,477.631,479.651,472.792,479.651,467.308z"/>
	</g>
</g>
</svg>
